<svg width="44" height="44" viewBox="0 0 44 44" fill="none" xmlns="http://www.w3.org/2000/svg">
<rect width="44" height="44" rx="22" fill="#5E5C60"/>
<path fill-rule="evenodd" clip-rule="evenodd" d="M17 29V31H27V13H17V15C17 15.5523 16.5523 16 16 16C15.4477 16 15 15.5523 15 15V12.5644C15 11.7004 15.7004 11 16.5644 11H27.4356C28.2996 11 29 11.7004 29 12.5644V31.4356C29 32.2996 28.2996 33 27.4356 33H16.5644C15.7004 33 15 32.2996 15 31.4356V29C15 28.4477 15.4477 28 16 28C16.5523 28 17 28.4477 17 29ZM16.7071 19.2929C17.0976 19.6834 17.0976 20.3166 16.7071 20.7071L16.4142 21H22C22.5523 21 23 21.4477 23 22C23 22.5523 22.5523 23 22 23H16.4142L16.7071 23.2929C17.0976 23.6834 17.0976 24.3166 16.7071 24.7071C16.3166 25.0976 15.6834 25.0976 15.2929 24.7071L13.293 22.7072L13.2929 22.7071C13.197 22.6112 13.1247 22.5007 13.0759 22.3828C13.027 22.2649 13 22.1356 13 22C13 21.7239 13.1119 21.4739 13.2929 21.2929L15.2929 19.2929C15.6834 18.9024 16.3166 18.9024 16.7071 19.2929Z" fill="#343434"/>
</svg>
